<svg xmlns="http://www.w3.org/2000/svg" viewBox="0 96 960 960">
	<path d="M 230 936 C 188 936 152.5 921.5 123.5 892.5 C 94.5 863.5 80 828 80 786 C 80 744 94.5 708.5 123.5 679.5 C 152.5 650.5 188 636 230 636 C 272 636 307.5 650.5 336.5 679.5 C 365.5 708.5 380 744 380 786 C 380 828 365.5 863.5 336.5 892.5 C 307.5 921.5 272 936 230 936 Z M 481 515 C 439 515 403.5 500.5 374.5 471.5 C 345.5 442.5 331 407 331 365 C 331 323 345.5 287.5 374.5 258.5 C 403.5 229.5 439 215 481 215 C 523 215 558.5 229.5 587.5 258.5 C 616.5 287.5 631 323 631 365 C 631 407 616.5 442.5 587.5 471.5 C 558.5 500.5 523 515 481 515 Z M 701 815.966 L 576 815.966 L 576 753.966 L 701 753.966 L 701 628.966 L 763 628.966 L 763 753.966 L 888 753.966 L 888 815.966 L 763 815.966 L 763 940.966 L 701 940.966 Z" />
</svg>